# xmcd
#
# Track frame offsets:
#	150
#	33563
#	56758
#	70335
#	86925
#	108773
#	132115
#	149045
#	181603
#	202248
#	226615
#	248323
#	279102
#
# Disc length: 3727 seconds
#
# Revision: 1
# Processed by: cddbd v1.5.2PL0 Copyright (c) Steve Scherf et al.
# Submitted via: audiograbber 1.83.01
#
DISCID=b20e8d0d
DTITLE=Motor - Klunk
DYEAR=2006
DGENRE=electro house
TTITLE0=Black Powder
TTITLE1=Yak
TTITLE2=Stuka Stunt
TTITLE3=Killer
TTITLE4=Botox
TTITLE5=MDXT-A
TTITLE6=1 X 1
TTITLE7=Sweatbox
TTITLE8=King Of USA
TTITLE9=Spazm
TTITLE10=Din 13
TTITLE11=En Trans
TTITLE12=Data Track
EXTD=
EXTT0=
EXTT1=
EXTT2=
EXTT3=
EXTT4=
EXTT5=
EXTT6=
EXTT7=
EXTT8=
EXTT9=
EXTT10=
EXTT11=
EXTT12=
PLAYORDER=
